<mxfile host="65bd71144e" modified="2020-12-28T15:17:52.947Z" agent="5.0 (X11; Linux x86_64) AppleWebKit/537.36 (KHTML, like Gecko) Code/1.52.1 Chrome/83.0.4103.122 Electron/9.3.5 Safari/537.36" etag="mPl46DJw_hJwX10JC3nQ" version="13.10.0" type="embed">
    <diagram id="DrZXiVs0aSQVqa0aRuP6" name="software">
        <mxGraphModel dx="798" dy="612" grid="1" gridSize="10" guides="1" tooltips="1" connect="1" arrows="1" fold="1" page="1" pageScale="1" pageWidth="850" pageHeight="1100" math="0" shadow="0" extFonts="Rubik^https://fonts.googleapis.com/css?family=Rubik|Roboto^https://fonts.googleapis.com/css?family=Roboto">
            <root>
                <mxCell id="RKsdGQdphBBXt08AxXi1-0"/>
                <mxCell id="RKsdGQdphBBXt08AxXi1-1" parent="RKsdGQdphBBXt08AxXi1-0"/>
                <mxCell id="P9GwloWI6S9LXT880i7l-4" style="edgeStyle=orthogonalEdgeStyle;orthogonalLoop=1;jettySize=auto;html=1;entryX=1;entryY=0.5;entryDx=0;entryDy=0;endArrow=blockThin;endFill=1;strokeWidth=1;fontFamily=Helvetica;fontSize=13;fillColor=#dae8fc;startArrow=none;startFill=0;exitX=0.25;exitY=1;exitDx=0;exitDy=0;rounded=0;fontColor=#000000;strokeColor=#000000;" parent="RKsdGQdphBBXt08AxXi1-1" source="9c7RmDfzx6HJ3sPSUytA-1" target="9c7RmDfzx6HJ3sPSUytA-36" edge="1">
                    <mxGeometry relative="1" as="geometry"/>
                </mxCell>
                <mxCell id="9c7RmDfzx6HJ3sPSUytA-1" value="&lt;div style=&quot;font-size: 14px&quot;&gt;Raspberry Pi 4&lt;/div&gt;&lt;div style=&quot;font-size: 12px&quot;&gt;&lt;font&gt;&lt;b&gt;&lt;font style=&quot;line-height: 160% ; font-size: 12px&quot;&gt;IP: 192.168.1.200&lt;/font&gt;&lt;/b&gt;&lt;/font&gt;&lt;/div&gt;" style="rounded=0;whiteSpace=wrap;html=1;shadow=0;glass=0;comic=0;strokeColor=#000000;strokeWidth=1;fillColor=#ffffff;gradientColor=none;fontFamily=Helvetica;FType=g;fontSize=13;fontColor=#000000;" parent="RKsdGQdphBBXt08AxXi1-1" vertex="1">
                    <mxGeometry x="480.84" y="100.00000000000001" width="169.16" height="60" as="geometry"/>
                </mxCell>
                <mxCell id="P9GwloWI6S9LXT880i7l-2" style="edgeStyle=orthogonalEdgeStyle;rounded=0;orthogonalLoop=1;jettySize=auto;html=1;entryX=0.25;entryY=1;entryDx=0;entryDy=0;endArrow=blockThin;endFill=1;strokeColor=#000000;strokeWidth=1;fontFamily=Helvetica;fontSize=13;fontColor=#000000;" parent="RKsdGQdphBBXt08AxXi1-1" source="9c7RmDfzx6HJ3sPSUytA-6" target="9c7RmDfzx6HJ3sPSUytA-36" edge="1">
                    <mxGeometry relative="1" as="geometry"/>
                </mxCell>
                <mxCell id="9c7RmDfzx6HJ3sPSUytA-6" value="&lt;div style=&quot;font-size: 14px&quot;&gt;Balser - Camera (x4)&lt;br&gt;&lt;/div&gt;&lt;font style=&quot;font-size: 12px&quot;&gt;&lt;b&gt;&lt;font style=&quot;font-size: 12px&quot;&gt;IP: 192.168.1.(20:24)&lt;/font&gt;&lt;/b&gt;&lt;/font&gt;" style="rounded=0;whiteSpace=wrap;html=1;shadow=0;glass=0;comic=0;strokeColor=#000000;strokeWidth=1;fillColor=#ffffff;gradientColor=none;fontFamily=Helvetica;fontSize=13;fontColor=#000000;" parent="RKsdGQdphBBXt08AxXi1-1" vertex="1">
                    <mxGeometry x="81" y="222.33" width="170" height="60" as="geometry"/>
                </mxCell>
                <mxCell id="P9GwloWI6S9LXT880i7l-1" style="edgeStyle=orthogonalEdgeStyle;rounded=0;orthogonalLoop=1;jettySize=auto;html=1;entryX=0.25;entryY=0;entryDx=0;entryDy=0;endArrow=blockThin;endFill=1;strokeColor=#000000;strokeWidth=1;fontFamily=Helvetica;fontSize=13;fontColor=#000000;" parent="RKsdGQdphBBXt08AxXi1-1" source="9c7RmDfzx6HJ3sPSUytA-19" target="9c7RmDfzx6HJ3sPSUytA-36" edge="1">
                    <mxGeometry relative="1" as="geometry"/>
                </mxCell>
                <mxCell id="9c7RmDfzx6HJ3sPSUytA-19" value="&lt;div&gt;&lt;div&gt;&lt;font style=&quot;font-size: 14px&quot;&gt;OS1 - LiDAR (x2)&lt;/font&gt;&lt;/div&gt;&lt;/div&gt;&lt;font style=&quot;font-size: 12px&quot;&gt;&lt;b&gt;&lt;font style=&quot;font-size: 12px&quot;&gt;IP: 192.168.1.(12/13)&lt;/font&gt;&lt;/b&gt;&lt;/font&gt;" style="rounded=0;whiteSpace=wrap;html=1;shadow=0;glass=0;comic=0;strokeColor=#000000;strokeWidth=1;fillColor=#ffffff;gradientColor=none;fontFamily=Helvetica;fontSize=13;fontColor=#000000;" parent="RKsdGQdphBBXt08AxXi1-1" vertex="1">
                    <mxGeometry x="80" y="100" width="170" height="60" as="geometry"/>
                </mxCell>
                <mxCell id="AZuWpqtSdbUskIOm4bp3-1" style="edgeStyle=orthogonalEdgeStyle;rounded=0;orthogonalLoop=1;jettySize=auto;html=1;exitX=0.5;exitY=0;exitDx=0;exitDy=0;entryX=0.5;entryY=1;entryDx=0;entryDy=0;startArrow=none;startFill=0;endArrow=blockThin;endFill=1;fontColor=#000000;strokeColor=#000000;" parent="RKsdGQdphBBXt08AxXi1-1" source="9c7RmDfzx6HJ3sPSUytA-23" target="9c7RmDfzx6HJ3sPSUytA-1" edge="1">
                    <mxGeometry relative="1" as="geometry"/>
                </mxCell>
                <mxCell id="9c7RmDfzx6HJ3sPSUytA-23" value="&lt;font style=&quot;font-size: 14px&quot;&gt;Emlid - GPS&lt;/font&gt;&lt;font style=&quot;font-size: 14px&quot;&gt;&lt;br&gt;&lt;/font&gt;&lt;div style=&quot;font-size: 14px&quot;&gt;&lt;font style=&quot;font-size: 14px&quot;&gt;&lt;b&gt;&lt;font style=&quot;line-height: 160% ; font-size: 12px&quot;&gt;IP: 192.168.2.15&lt;/font&gt;&lt;/b&gt;&lt;/font&gt;&lt;/div&gt;" style="rounded=0;whiteSpace=wrap;html=1;shadow=0;glass=0;comic=0;strokeColor=#000000;strokeWidth=1;fillColor=#ffffff;gradientColor=none;fontFamily=Helvetica;fontSize=13;fontColor=#000000;" parent="RKsdGQdphBBXt08AxXi1-1" vertex="1">
                    <mxGeometry x="480.84" y="230" width="170" height="60" as="geometry"/>
                </mxCell>
                <mxCell id="9c7RmDfzx6HJ3sPSUytA-36" value="&lt;div&gt;&lt;font style=&quot;font-size: 14px&quot;&gt;Host Machine&lt;br&gt;&lt;/font&gt;&lt;/div&gt;&lt;div style=&quot;font-size: 12px&quot;&gt;&lt;font&gt;&lt;b&gt;IP: 192.168.1.100&lt;/b&gt;&lt;/font&gt;&lt;/div&gt;" style="rounded=0;whiteSpace=wrap;html=1;shadow=0;glass=0;comic=0;strokeColor=#000000;strokeWidth=1;fillColor=#ffffff;gradientColor=none;fontFamily=Helvetica;fontSize=13;FType=g;fontColor=#000000;" parent="RKsdGQdphBBXt08AxXi1-1" vertex="1">
                    <mxGeometry x="290" y="160" width="160" height="62.33" as="geometry"/>
                </mxCell>
            </root>
        </mxGraphModel>
    </diagram>
</mxfile>